<?xml version="1.0" encoding="iso-8859-1"?>
<!-- Generator: Adobe Illustrator 16.0.0, SVG Export Plug-In . SVG Version: 6.00 Build 0)  -->
<!DOCTYPE svg PUBLIC "-//W3C//DTD SVG 1.1//EN" "http://www.w3.org/Graphics/SVG/1.1/DTD/svg11.dtd">
<svg xmlns="http://www.w3.org/2000/svg" xmlns:xlink="http://www.w3.org/1999/xlink" fill="#FFFFFF" version="1.1" id="Capa_1" x="0px" y="0px" width="512px" height="512px" viewBox="0 0 377.337 377.338" style="enable-background:new 0 0 377.337 377.338;" xml:space="preserve">
<g>
	<path d="M301.687,53.505H75.648c-10.876,0-19.725,8.843-19.725,19.713v230.904c0,10.873,8.843,19.722,19.725,19.722h226.039   c10.873,0,19.722-8.844,19.722-19.722V73.218C321.404,62.348,312.56,53.505,301.687,53.505z M200.272,148.947   c0,7.587-3.885,14.187-11.633,19.825c-7.762,5.637-16.648,8.455-26.672,8.455h-38.166v51.799H85.892V76.356h76.203   c10.025,0,18.889,2.834,26.605,8.506c7.704,5.669,11.564,12.26,11.564,19.773v44.312H200.272z M123.808,104.534h38.558v44.506   h-38.558V104.534z M338.674,0H38.66C19.092,0,3.223,15.869,3.223,35.434v306.462c0,19.573,15.869,35.442,35.437,35.442h300.02   c19.568,0,35.436-15.869,35.436-35.442V35.434C374.115,15.869,358.248,0,338.674,0z M335.378,304.122   c0,18.572-15.113,33.691-33.691,33.691H75.648c-18.576,0-33.695-15.114-33.695-33.691V73.218c0-18.569,15.114-33.688,33.695-33.688   h226.039c18.572,0,33.691,15.114,33.691,33.688V304.122z" fill="#FFFFFF"/>
</g>
<g>
</g>
<g>
</g>
<g>
</g>
<g>
</g>
<g>
</g>
<g>
</g>
<g>
</g>
<g>
</g>
<g>
</g>
<g>
</g>
<g>
</g>
<g>
</g>
<g>
</g>
<g>
</g>
<g>
</g>
</svg>
